<svg width="18" height="22" viewBox="0 0 18 22" fill="none" xmlns="http://www.w3.org/2000/svg">
<path d="M8.12695 0.75C7.44516 0.75 6.87695 1.3182 6.87695 2C6.87508 2.17833 6.9368 2.35149 7.05105 2.48843C7.1653 2.62536 7.32461 2.71711 7.50039 2.74721C7.67617 2.77731 7.85692 2.74379 8.01023 2.65267C8.16353 2.56155 8.27935 2.41879 8.33691 2.25H9.62402V4.90234C9.62402 5.43038 9.9739 5.88593 10.4033 6.06055C10.8327 6.23516 11.4009 6.15341 11.7695 5.77539L13.5439 3.95508L14.3145 4.74512L12.4482 6.52148C12.0636 6.8873 11.9757 7.45818 12.1484 7.89062C12.3212 8.32307 12.7787 8.67676 13.3096 8.67676H15.9834V9.79102H13.2637C12.7354 9.79102 12.28 10.1414 12.1055 10.5713C11.9309 11.0012 12.0138 11.5693 12.3926 11.9375L14.3105 13.8008L13.543 14.5752L12.7373 13.7656C12.6688 13.6916 12.5862 13.6322 12.4942 13.5909C12.4023 13.5496 12.3029 13.5272 12.2022 13.5251C12.1014 13.5231 12.0012 13.5413 11.9077 13.5788C11.8141 13.6164 11.729 13.6723 11.6576 13.7435C11.5862 13.8146 11.5298 13.8994 11.4918 13.9927C11.4539 14.0861 11.4352 14.1862 11.4368 14.287C11.4384 14.3878 11.4603 14.4872 11.5012 14.5794C11.5421 14.6715 11.6011 14.7544 11.6748 14.8232L12.6572 15.8115C13.1395 16.2963 13.9487 16.2962 14.4307 15.8105L15.5537 14.6787C16.0373 14.1914 16.029 13.3797 15.5371 12.9014L13.8799 11.291H16.2334C16.9152 11.291 17.4834 10.7228 17.4834 10.041V8.42676C17.4834 7.74496 16.9152 7.17676 16.2334 7.17676H13.9355L15.5322 5.65723C16.0296 5.18326 16.0451 4.37096 15.5654 3.87891H15.5645L14.4385 2.72461C13.9543 2.2281 13.132 2.22873 12.6484 2.72461L11.124 4.28809V2C11.124 1.3182 10.5558 0.75 9.87402 0.75H8.12695ZM4.45801 2.34668C4.13091 2.34668 3.80343 2.47105 3.56152 2.71973L2.43262 3.88086C1.95465 4.37238 1.97032 5.18416 2.4668 5.65723L4.06934 7.18457H1.7666C1.0848 7.18457 0.516602 7.75277 0.516602 8.43457V10.0498C0.516602 10.7316 1.0848 11.2998 1.7666 11.2998H4.11523L2.45898 12.9082C1.9649 13.3875 1.95968 14.2019 2.44629 14.6885L3.57227 15.8154C4.05531 16.2985 4.86114 16.2966 5.34277 15.8125L9.00098 12.1367L9.75879 12.8984C9.82725 12.9724 9.90992 13.0319 10.0019 13.0732C10.0938 13.1145 10.1931 13.1369 10.2939 13.1389C10.3947 13.141 10.4949 13.1227 10.5884 13.0852C10.682 13.0477 10.767 12.9917 10.8385 12.9206C10.9099 12.8495 10.9663 12.7647 11.0042 12.6713C11.0422 12.5779 11.0609 12.4779 11.0593 12.3771C11.0577 12.2763 11.0358 12.1768 10.9949 12.0847C10.954 11.9926 10.895 11.9096 10.8213 11.8408L9.88672 10.9014C9.40441 10.4166 8.59656 10.4166 8.11426 10.9014L4.45605 14.5771L3.68652 13.8076L5.60254 11.9463V11.9453C5.98132 11.5771 6.06418 11.009 5.88965 10.5791C5.71511 10.1492 5.25968 9.7998 4.73145 9.7998H2.0166V8.68457H4.69336C5.22401 8.68457 5.68053 8.33151 5.85352 7.89941C6.02651 7.46732 5.94056 6.89655 5.55664 6.53027L5.55566 6.5293L3.68457 4.74512L4.45801 3.94922L6.23145 5.77344C6.59991 6.15191 7.16804 6.23399 7.59766 6.05957C8.02728 5.88515 8.37793 5.42969 8.37793 4.90137V4.53223C8.38008 4.35073 8.31634 4.17462 8.19854 4.03653C8.08074 3.89845 7.91686 3.80777 7.73729 3.7813C7.55773 3.75483 7.37466 3.79437 7.22202 3.89258C7.06938 3.9908 6.95754 4.14104 6.90723 4.31543L5.35449 2.71973C5.11258 2.47105 4.7851 2.34668 4.45801 2.34668ZM8.11914 13.5449C7.43734 13.5449 6.86914 14.1131 6.86914 14.7949V16.1387C6.86773 16.2381 6.8861 16.3367 6.92316 16.429C6.96022 16.5212 7.01524 16.6051 7.08502 16.6759C7.1548 16.7467 7.23796 16.8029 7.32965 16.8412C7.42134 16.8796 7.51975 16.8994 7.61914 16.8994C7.71853 16.8994 7.81694 16.8796 7.90863 16.8412C8.00032 16.8029 8.08348 16.7467 8.15326 16.6759C8.22304 16.6051 8.27806 16.5212 8.31512 16.429C8.35218 16.3367 8.37055 16.2381 8.36914 16.1387V15.0449H9.61719V19.75H8.36914V18.9678C8.37055 18.8684 8.35218 18.7697 8.31512 18.6775C8.27806 18.5853 8.22304 18.5013 8.15326 18.4305C8.08348 18.3598 8.00032 18.3036 7.90863 18.2652C7.81694 18.2268 7.71853 18.2071 7.61914 18.2071C7.51975 18.2071 7.42134 18.2268 7.32965 18.2652C7.23796 18.3036 7.1548 18.3598 7.08502 18.4305C7.01524 18.5013 6.96022 18.5853 6.92316 18.6775C6.8861 18.7697 6.86773 18.8684 6.86914 18.9678V20C6.86914 20.6818 7.43734 21.25 8.11914 21.25H9.86719C10.549 21.25 11.1172 20.6818 11.1172 20V14.7949C11.1172 14.1131 10.549 13.5449 9.86719 13.5449H8.11914Z" fill="black"/>
</svg>
